<?xml version="1.0" encoding="utf-8"?>
<!-- Generator: Adobe Illustrator 26.2.1, SVG Export Plug-In . SVG Version: 6.00 Build 0)  -->
<svg version="1.1" id="레이어_1" xmlns="http://www.w3.org/2000/svg" xmlns:xlink="http://www.w3.org/1999/xlink" x="0px"
	 y="0px" viewBox="0 0 138.9 99.2" style="enable-background:new 0 0 138.9 99.2;" xml:space="preserve">
<style type="text/css">
	.st0{fill:#1E396E;}
	.st1{fill:#2496CE;}
</style>
<g>
	<path class="st0" d="M57.5,0c9.6,0,18,4.6,22.7,11.3H34.8C39.5,4.6,47.9,0,57.5,0z"/>
	<path class="st0" d="M11.1,27.1c0-5.2,4.3-9.5,9.5-9.5h73.7c5.2,0,9.5,4.3,9.5,9.5v5H11.1V27.1z"/>
	<path class="st0" d="M103.9,89.2c0,5.3-4.3,9.5-9.5,9.5H20.6c-5.2,0-9.5-4.3-9.5-9.5v-4.9h92.8V89.2z"/>
	<path class="st0" d="M129.5,29.3c-5.1,0-9.3-4.2-9.3-9.3c0-5.1,4.2-9.3,9.3-9.3c5.1,0,9.3,4.2,9.3,9.3
		C138.8,25.1,134.7,29.3,129.5,29.3z"/>
	<path class="st1" d="M111.8,38.3H80.8V78h30.9c1.7,0,3.2-1.4,3.2-3.2V41.5C115,39.8,113.5,38.3,111.8,38.3z M108,56.2l-3.8,4.1
		c-0.2,0.2-0.3,0.4-0.3,0.7l0.7,5.6c0.1,0.7-0.7,1.2-1.2,0.9l-5.1-2.4c-0.3-0.1-0.5-0.1-0.8,0l-5.1,2.4c-0.6,0.3-1.3-0.2-1.2-0.9
		l0.7-5.6c0-0.3-0.1-0.5-0.3-0.7l-3.8-4.1c-0.5-0.5-0.2-1.3,0.5-1.5l5.5-1.1c0.3-0.1,0.5-0.2,0.6-0.4l2.8-4.9c0.3-0.6,1.2-0.6,1.5,0
		l2.7,4.9c0.2,0.3,0.4,0.4,0.7,0.4l5.5,1.1C108.2,54.9,108.5,55.7,108,56.2z"/>
	<path class="st1" d="M40.4,38.3V78h34.1V38.3H40.4z M67.6,56.2l-3.8,4.1c-0.2,0.2-0.2,0.4-0.2,0.7l0.7,5.6c0.1,0.7-0.7,1.2-1.2,0.9
		l-5.1-2.4c-0.3-0.1-0.5-0.1-0.8,0L52,67.5c-0.6,0.3-1.3-0.2-1.2-0.9l0.7-5.6c0-0.3-0.1-0.5-0.3-0.7l-3.8-4.1
		c-0.5-0.5-0.2-1.3,0.5-1.5l5.5-1.1c0.3-0.1,0.5-0.2,0.6-0.4l2.8-4.9c0.3-0.6,1.2-0.6,1.5,0l2.7,4.9c0.2,0.3,0.4,0.4,0.7,0.4
		l5.5,1.1C67.8,54.9,68.1,55.7,67.6,56.2z"/>
	<path class="st1" d="M3.3,38.3c-1.8,0-3.2,1.5-3.2,3.2v33.3c0,1.8,1.4,3.2,3.2,3.2h30.9V38.3H3.3z M27.2,56.2l-3.8,4.1
		c-0.2,0.2-0.2,0.4-0.2,0.7l0.7,5.6c0.1,0.7-0.7,1.2-1.3,0.9l-5-2.4c-0.3-0.1-0.5-0.1-0.8,0l-5.1,2.4c-0.6,0.3-1.4-0.2-1.2-0.9
		l0.7-5.6c0-0.3-0.1-0.5-0.3-0.7l-3.8-4.1c-0.5-0.5-0.2-1.3,0.5-1.5l5.5-1.1c0.3-0.1,0.5-0.2,0.6-0.4l2.8-4.9c0.3-0.6,1.2-0.6,1.5,0
		l2.7,4.9c0.2,0.3,0.4,0.4,0.7,0.4l5.5,1.1C27.4,54.9,27.7,55.7,27.2,56.2z"/>
	<path class="st0" d="M122.1,61.1h-3.7v-6h3.7c2.5,0,4.5-2,4.5-4.5V22.1h6v28.7C132.5,56.5,127.9,61.1,122.1,61.1z"/>
</g>
</svg>
